# xmcd
#
# Track frame offsets:
#	150
#	18657
#	36267
#	52491
#	65953
#	82050
#	97550
#	115096
#	131215
#	151712
#	165981
#	181769
#	197613
#	214380
#	231009
#	246639
#	264314
#	277095
#	294720
#
# Disc length: 4151 seconds
#
# Revision: 2
# Processed by: cddbd v1.5.2PL0 Copyright (c) Steve Scherf et al.
# Submitted via: audiograbber 1.83.01
#
DISCID=1e103513
DTITLE=Various Artist - Promo Only Country Radio 2008 - 10
DYEAR=2008
DGENRE=Country
TTITLE0=Keith Anderson - Somebody Needs A Hug
TTITLE1=Rascall Flatts - Here
TTITLE2=Whitney Duncan - When I Said I Would
TTITLE3=Chris Cagle - Never Ever Gone
TTITLE4=Bake Shelton - She Wouldn't Be Gone
TTITLE5=Julianne Hough - My Hallelujah Song
TTITLE6=Taylor Swift - Love Story
TTITLE7=Josh Turner - Everything Is Fine
TTITLE8=Sugarland - Already Gone
TTITLE9=Josh Gracin - Unbelievable (Ann Marie)
TTITLE10=Laura Bryna - Hometown Heros
TTITLE11=Rick Huckaby - Ain't Enough Blacktop
TTITLE12=The Duhks - You Don't See It
TTITLE13=Jeff Bates - Riverbank
TTITLE14=Miranda Lambert - More Like Her
TTITLE15=LeAnn Rimes - What I Can Not Change
TTITLE16=Kate Russell - Powerfull Stuff
TTITLE17=The Youngers - Highway 9
TTITLE18=Lance Wing - Heat
EXTD=
EXTT0=
EXTT1=
EXTT2=
EXTT3=
EXTT4=
EXTT5=
EXTT6=
EXTT7=
EXTT8=
EXTT9=
EXTT10=
EXTT11=
EXTT12=
EXTT13=
EXTT14=
EXTT15=
EXTT16=
EXTT17=
EXTT18=
PLAYORDER=
